<?xml version="1.0" encoding="UTF-8" standalone="no"?>
<!DOCTYPE svg PUBLIC "-//W3C//DTD SVG 1.1//EN"
 "http://www.w3.org/Graphics/SVG/1.1/DTD/svg11.dtd">
<!-- Generated by graphviz version 5.0.1 (20220820.1526)
 -->
<!-- Title: t Pages: 1 -->
<svg width="651pt" height="1201pt"
 viewBox="0.00 0.00 651.00 1200.50" xmlns="http://www.w3.org/2000/svg" xmlns:xlink="http://www.w3.org/1999/xlink">
<g id="graph0" class="graph" transform="scale(1 1) rotate(0) translate(4 1196.5)">
<title>t</title>
<polygon fill="white" stroke="none" points="-4,4 -4,-1196.5 647,-1196.5 647,4 -4,4"/>
<!-- addresses -->
<g id="node1" class="node">
<title>addresses</title>
<polygon fill="none" stroke="black" points="243.5,-1146.5 243.5,-1183.5 381.5,-1183.5 381.5,-1146.5 243.5,-1146.5"/>
<text text-anchor="start" x="284.5" y="-1162.3" font-family="Times,serif" font-weight="bold" font-size="14.00">addresses</text>
<polygon fill="none" stroke="black" points="243.5,-1109.5 243.5,-1146.5 381.5,-1146.5 381.5,-1109.5 243.5,-1109.5"/>
<text text-anchor="start" x="274.5" y="-1124.3" font-family="Times,serif" font-size="14.00">address_id:int</text>
<polygon fill="none" stroke="black" points="243.5,-1072.5 243.5,-1109.5 381.5,-1109.5 381.5,-1072.5 243.5,-1072.5"/>
<text text-anchor="start" x="269.5" y="-1087.3" font-family="Times,serif" font-size="14.00">customer_id:int</text>
<polygon fill="none" stroke="black" points="243.5,-1035.5 243.5,-1072.5 381.5,-1072.5 381.5,-1035.5 243.5,-1035.5"/>
<text text-anchor="start" x="265.5" y="-1050.3" font-family="Times,serif" font-size="14.00">line1:varchar(60)</text>
<polygon fill="none" stroke="black" points="243.5,-998.5 243.5,-1035.5 381.5,-1035.5 381.5,-998.5 243.5,-998.5"/>
<text text-anchor="start" x="265.5" y="-1013.3" font-family="Times,serif" font-size="14.00">line2:varchar(60)</text>
<polygon fill="none" stroke="black" points="243.5,-961.5 243.5,-998.5 381.5,-998.5 381.5,-961.5 243.5,-961.5"/>
<text text-anchor="start" x="268.5" y="-976.3" font-family="Times,serif" font-size="14.00">city:varchar(40)</text>
<polygon fill="none" stroke="black" points="243.5,-924.5 243.5,-961.5 381.5,-961.5 381.5,-924.5 243.5,-924.5"/>
<text text-anchor="start" x="270" y="-939.3" font-family="Times,serif" font-size="14.00">state:varchar(2)</text>
<polygon fill="none" stroke="black" points="243.5,-887.5 243.5,-924.5 381.5,-924.5 381.5,-887.5 243.5,-887.5"/>
<text text-anchor="start" x="254.5" y="-902.3" font-family="Times,serif" font-size="14.00">zip_code:varchar(10)</text>
<polygon fill="none" stroke="black" points="243.5,-850.5 243.5,-887.5 381.5,-887.5 381.5,-850.5 243.5,-850.5"/>
<text text-anchor="start" x="262.5" y="-865.3" font-family="Times,serif" font-size="14.00">phone:varchar(12)</text>
<polygon fill="none" stroke="black" points="243.5,-813.5 243.5,-850.5 381.5,-850.5 381.5,-813.5 243.5,-813.5"/>
<text text-anchor="start" x="262.5" y="-828.3" font-family="Times,serif" font-size="14.00">disabled:tinyint(1)</text>
</g>
<!-- administrators -->
<g id="node2" class="node">
<title>administrators</title>
<polygon fill="none" stroke="black" points="2.5,-1155.5 2.5,-1192.5 176.5,-1192.5 176.5,-1155.5 2.5,-1155.5"/>
<text text-anchor="start" x="46" y="-1171.3" font-family="Times,serif" font-weight="bold" font-size="14.00">administrators</text>
<polygon fill="none" stroke="black" points="2.5,-1118.5 2.5,-1155.5 176.5,-1155.5 176.5,-1118.5 2.5,-1118.5"/>
<text text-anchor="start" x="54.5" y="-1133.3" font-family="Times,serif" font-size="14.00">admin_id:int</text>
<polygon fill="none" stroke="black" points="2.5,-1081.5 2.5,-1118.5 176.5,-1118.5 176.5,-1081.5 2.5,-1081.5"/>
<text text-anchor="start" x="13.5" y="-1096.3" font-family="Times,serif" font-size="14.00">email_address:varchar(255)</text>
<polygon fill="none" stroke="black" points="2.5,-1044.5 2.5,-1081.5 176.5,-1081.5 176.5,-1044.5 2.5,-1044.5"/>
<text text-anchor="start" x="27" y="-1059.3" font-family="Times,serif" font-size="14.00">password:varchar(255)</text>
<polygon fill="none" stroke="black" points="2.5,-1007.5 2.5,-1044.5 176.5,-1044.5 176.5,-1007.5 2.5,-1007.5"/>
<text text-anchor="start" x="23.5" y="-1022.3" font-family="Times,serif" font-size="14.00">first_name:varchar(255)</text>
<polygon fill="none" stroke="black" points="2.5,-970.5 2.5,-1007.5 176.5,-1007.5 176.5,-970.5 2.5,-970.5"/>
<text text-anchor="start" x="24.5" y="-985.3" font-family="Times,serif" font-size="14.00">last_name:varchar(255)</text>
</g>
<!-- categories -->
<g id="node3" class="node">
<title>categories</title>
<polygon fill="none" stroke="black" points="0.5,-259.5 0.5,-296.5 179.5,-296.5 179.5,-259.5 0.5,-259.5"/>
<text text-anchor="start" x="61" y="-275.3" font-family="Times,serif" font-weight="bold" font-size="14.00">categories</text>
<polygon fill="none" stroke="black" points="0.5,-222.5 0.5,-259.5 179.5,-259.5 179.5,-222.5 0.5,-222.5"/>
<text text-anchor="start" x="49" y="-237.3" font-family="Times,serif" font-size="14.00">category_id:int</text>
<polygon fill="none" stroke="black" points="0.5,-185.5 0.5,-222.5 179.5,-222.5 179.5,-185.5 0.5,-185.5"/>
<text text-anchor="start" x="11.5" y="-200.3" font-family="Times,serif" font-size="14.00">category_name:varchar(255)</text>
</g>
<!-- products -->
<g id="node7" class="node">
<title>products</title>
<polygon fill="none" stroke="black" points="215.5,-295.5 215.5,-332.5 410.5,-332.5 410.5,-295.5 215.5,-295.5"/>
<text text-anchor="start" x="287" y="-311.3" font-family="Times,serif" font-weight="bold" font-size="14.00">products</text>
<polygon fill="none" stroke="black" points="215.5,-258.5 215.5,-295.5 410.5,-295.5 410.5,-258.5 215.5,-258.5"/>
<text text-anchor="start" x="274.5" y="-273.3" font-family="Times,serif" font-size="14.00">product_id:int</text>
<polygon fill="none" stroke="black" points="215.5,-221.5 215.5,-258.5 410.5,-258.5 410.5,-221.5 215.5,-221.5"/>
<text text-anchor="start" x="272" y="-236.3" font-family="Times,serif" font-size="14.00">category_id:int</text>
<polygon fill="none" stroke="black" points="215.5,-184.5 215.5,-221.5 410.5,-221.5 410.5,-184.5 215.5,-184.5"/>
<text text-anchor="start" x="242.5" y="-199.3" font-family="Times,serif" font-size="14.00">product_code:varchar(10)</text>
<polygon fill="none" stroke="black" points="215.5,-147.5 215.5,-184.5 410.5,-184.5 410.5,-147.5 215.5,-147.5"/>
<text text-anchor="start" x="237" y="-162.3" font-family="Times,serif" font-size="14.00">product_name:varchar(255)</text>
<polygon fill="none" stroke="black" points="215.5,-110.5 215.5,-147.5 410.5,-147.5 410.5,-110.5 215.5,-110.5"/>
<text text-anchor="start" x="270.5" y="-125.3" font-family="Times,serif" font-size="14.00">description:text</text>
<polygon fill="none" stroke="black" points="215.5,-73.5 215.5,-110.5 410.5,-110.5 410.5,-73.5 215.5,-73.5"/>
<text text-anchor="start" x="247.5" y="-88.3" font-family="Times,serif" font-size="14.00">list_price:decimal(10,2)</text>
<polygon fill="none" stroke="black" points="215.5,-36.5 215.5,-73.5 410.5,-73.5 410.5,-36.5 215.5,-36.5"/>
<text text-anchor="start" x="226.5" y="-51.3" font-family="Times,serif" font-size="14.00">discount_percent:decimal(10,2)</text>
<polygon fill="none" stroke="black" points="215.5,0.5 215.5,-36.5 410.5,-36.5 410.5,0.5 215.5,0.5"/>
<text text-anchor="start" x="256.5" y="-14.3" font-family="Times,serif" font-size="14.00">date_added:datetime</text>
</g>
<!-- categories&#45;&#45;products -->
<g id="edge1" class="edge">
<title>categories:p15_PRI&#45;&#45;products:p42_MUL</title>
<path fill="none" stroke="black" d="M179,-240.5C191,-240.5 196.25,-240.5 204.88,-240.5"/>
<polygon fill="black" stroke="black" points="205,-244 215,-240.5 205,-237 205,-244"/>
</g>
<!-- customers -->
<g id="node4" class="node">
<title>customers</title>
<polygon fill="none" stroke="black" points="2.5,-915.5 2.5,-952.5 176.5,-952.5 176.5,-915.5 2.5,-915.5"/>
<text text-anchor="start" x="59.5" y="-931.3" font-family="Times,serif" font-weight="bold" font-size="14.00">customers</text>
<polygon fill="none" stroke="black" points="2.5,-878.5 2.5,-915.5 176.5,-915.5 176.5,-878.5 2.5,-878.5"/>
<text text-anchor="start" x="46.5" y="-893.3" font-family="Times,serif" font-size="14.00">customer_id:int</text>
<polygon fill="none" stroke="black" points="2.5,-841.5 2.5,-878.5 176.5,-878.5 176.5,-841.5 2.5,-841.5"/>
<text text-anchor="start" x="13.5" y="-856.3" font-family="Times,serif" font-size="14.00">email_address:varchar(255)</text>
<polygon fill="none" stroke="black" points="2.5,-804.5 2.5,-841.5 176.5,-841.5 176.5,-804.5 2.5,-804.5"/>
<text text-anchor="start" x="30.5" y="-819.3" font-family="Times,serif" font-size="14.00">password:varchar(60)</text>
<polygon fill="none" stroke="black" points="2.5,-767.5 2.5,-804.5 176.5,-804.5 176.5,-767.5 2.5,-767.5"/>
<text text-anchor="start" x="27" y="-782.3" font-family="Times,serif" font-size="14.00">first_name:varchar(60)</text>
<polygon fill="none" stroke="black" points="2.5,-730.5 2.5,-767.5 176.5,-767.5 176.5,-730.5 2.5,-730.5"/>
<text text-anchor="start" x="28" y="-745.3" font-family="Times,serif" font-size="14.00">last_name:varchar(60)</text>
<polygon fill="none" stroke="black" points="2.5,-693.5 2.5,-730.5 176.5,-730.5 176.5,-693.5 2.5,-693.5"/>
<text text-anchor="start" x="24.5" y="-708.3" font-family="Times,serif" font-size="14.00">shipping_address_id:int</text>
<polygon fill="none" stroke="black" points="2.5,-656.5 2.5,-693.5 176.5,-693.5 176.5,-656.5 2.5,-656.5"/>
<text text-anchor="start" x="30.5" y="-671.3" font-family="Times,serif" font-size="14.00">billing_address_id:int</text>
</g>
<!-- customers&#45;&#45;addresses -->
<g id="edge2" class="edge">
<title>customers:p17_PRI&#45;&#45;addresses:p2_MUL</title>
<path fill="none" stroke="black" d="M177.5,-897.5C264.7,-897.5 160.8,-1075.91 232.33,-1090.55"/>
<polygon fill="black" stroke="black" points="232.22,-1094.05 242.5,-1091.5 232.87,-1087.08 232.22,-1094.05"/>
</g>
<!-- orders -->
<g id="node6" class="node">
<title>orders</title>
<polygon fill="none" stroke="black" points="226.5,-758.5 226.5,-795.5 399.5,-795.5 399.5,-758.5 226.5,-758.5"/>
<text text-anchor="start" x="294" y="-774.3" font-family="Times,serif" font-weight="bold" font-size="14.00">orders</text>
<polygon fill="none" stroke="black" points="226.5,-721.5 226.5,-758.5 399.5,-758.5 399.5,-721.5 226.5,-721.5"/>
<text text-anchor="start" x="281" y="-736.3" font-family="Times,serif" font-size="14.00">order_id:int</text>
<polygon fill="none" stroke="black" points="226.5,-684.5 226.5,-721.5 399.5,-721.5 399.5,-684.5 226.5,-684.5"/>
<text text-anchor="start" x="270" y="-699.3" font-family="Times,serif" font-size="14.00">customer_id:int</text>
<polygon fill="none" stroke="black" points="226.5,-647.5 226.5,-684.5 399.5,-684.5 399.5,-647.5 226.5,-647.5"/>
<text text-anchor="start" x="258.5" y="-662.3" font-family="Times,serif" font-size="14.00">order_date:datetime</text>
<polygon fill="none" stroke="black" points="226.5,-610.5 226.5,-647.5 399.5,-647.5 399.5,-610.5 226.5,-610.5"/>
<text text-anchor="start" x="237.5" y="-625.3" font-family="Times,serif" font-size="14.00">ship_amount:decimal(10,2)</text>
<polygon fill="none" stroke="black" points="226.5,-573.5 226.5,-610.5 399.5,-610.5 399.5,-573.5 226.5,-573.5"/>
<text text-anchor="start" x="240.5" y="-588.3" font-family="Times,serif" font-size="14.00">tax_amount:decimal(10,2)</text>
<polygon fill="none" stroke="black" points="226.5,-536.5 226.5,-573.5 399.5,-573.5 399.5,-536.5 226.5,-536.5"/>
<text text-anchor="start" x="261.5" y="-551.3" font-family="Times,serif" font-size="14.00">ship_date:datetime</text>
<polygon fill="none" stroke="black" points="226.5,-499.5 226.5,-536.5 399.5,-536.5 399.5,-499.5 226.5,-499.5"/>
<text text-anchor="start" x="260" y="-514.3" font-family="Times,serif" font-size="14.00">ship_address_id:int</text>
<polygon fill="none" stroke="black" points="226.5,-462.5 226.5,-499.5 399.5,-499.5 399.5,-462.5 226.5,-462.5"/>
<text text-anchor="start" x="252.5" y="-477.3" font-family="Times,serif" font-size="14.00">card_type:varchar(50)</text>
<polygon fill="none" stroke="black" points="226.5,-425.5 226.5,-462.5 399.5,-462.5 399.5,-425.5 226.5,-425.5"/>
<text text-anchor="start" x="252" y="-440.3" font-family="Times,serif" font-size="14.00">card_number:char(16)</text>
<polygon fill="none" stroke="black" points="226.5,-388.5 226.5,-425.5 399.5,-425.5 399.5,-388.5 226.5,-388.5"/>
<text text-anchor="start" x="257" y="-403.3" font-family="Times,serif" font-size="14.00">card_expires:char(7)</text>
<polygon fill="none" stroke="black" points="226.5,-351.5 226.5,-388.5 399.5,-388.5 399.5,-351.5 226.5,-351.5"/>
<text text-anchor="start" x="254" y="-366.3" font-family="Times,serif" font-size="14.00">billing_address_id:int</text>
</g>
<!-- customers&#45;&#45;orders -->
<g id="edge3" class="edge">
<title>customers:p17_PRI&#45;&#45;orders:p31_MUL</title>
<path fill="none" stroke="black" d="M177.5,-897.5C262.51,-897.5 147.42,-719.81 215.23,-704.54"/>
<polygon fill="black" stroke="black" points="215.9,-707.99 225.5,-703.5 215.2,-701.03 215.9,-707.99"/>
</g>
<!-- order_items -->
<g id="node5" class="node">
<title>order_items</title>
<polygon fill="none" stroke="black" points="446.5,-582.5 446.5,-619.5 643.5,-619.5 643.5,-582.5 446.5,-582.5"/>
<text text-anchor="start" x="509.5" y="-598.3" font-family="Times,serif" font-weight="bold" font-size="14.00">order_items</text>
<polygon fill="none" stroke="black" points="446.5,-545.5 446.5,-582.5 643.5,-582.5 643.5,-545.5 446.5,-545.5"/>
<text text-anchor="start" x="514.5" y="-560.3" font-family="Times,serif" font-size="14.00">item_id:int</text>
<polygon fill="none" stroke="black" points="446.5,-508.5 446.5,-545.5 643.5,-545.5 643.5,-508.5 446.5,-508.5"/>
<text text-anchor="start" x="513" y="-523.3" font-family="Times,serif" font-size="14.00">order_id:int</text>
<polygon fill="none" stroke="black" points="446.5,-471.5 446.5,-508.5 643.5,-508.5 643.5,-471.5 446.5,-471.5"/>
<text text-anchor="start" x="506.5" y="-486.3" font-family="Times,serif" font-size="14.00">product_id:int</text>
<polygon fill="none" stroke="black" points="446.5,-434.5 446.5,-471.5 643.5,-471.5 643.5,-434.5 446.5,-434.5"/>
<text text-anchor="start" x="475.5" y="-449.3" font-family="Times,serif" font-size="14.00">item_price:decimal(10,2)</text>
<polygon fill="none" stroke="black" points="446.5,-397.5 446.5,-434.5 643.5,-434.5 643.5,-397.5 446.5,-397.5"/>
<text text-anchor="start" x="457.5" y="-412.3" font-family="Times,serif" font-size="14.00">discount_amount:decimal(10,2)</text>
<polygon fill="none" stroke="black" points="446.5,-360.5 446.5,-397.5 643.5,-397.5 643.5,-360.5 446.5,-360.5"/>
<text text-anchor="start" x="513.5" y="-375.3" font-family="Times,serif" font-size="14.00">quantity:int</text>
</g>
<!-- orders&#45;&#45;order_items -->
<g id="edge4" class="edge">
<title>orders:p30_PRI&#45;&#45;order_items:p25_MUL</title>
<path fill="none" stroke="black" d="M400.5,-740.5C493.52,-740.5 360.39,-543.82 435.75,-528.45"/>
<polygon fill="black" stroke="black" points="436.37,-531.91 446,-527.5 435.72,-524.94 436.37,-531.91"/>
</g>
<!-- products&#45;&#45;order_items -->
<g id="edge5" class="edge">
<title>products:p41_PRI&#45;&#45;order_items:p26_MUL</title>
<path fill="none" stroke="black" d="M410,-277.5C501.84,-277.5 362.17,-473.26 435.92,-488.55"/>
<polygon fill="black" stroke="black" points="435.72,-492.05 446,-489.5 436.37,-485.08 435.72,-492.05"/>
</g>
</g>
</svg>
