<?xml version="1.0" encoding="UTF-8" standalone="no"?>
<!DOCTYPE svg PUBLIC "-//W3C//DTD SVG 1.1//EN"
 "http://www.w3.org/Graphics/SVG/1.1/DTD/svg11.dtd">
<!-- Generated by graphviz version 5.0.1 (20220820.1526)
 -->
<!-- Title: t Pages: 1 -->
<svg width="1433pt" height="1079pt"
 viewBox="0.00 0.00 1433.39 1079.00" xmlns="http://www.w3.org/2000/svg" xmlns:xlink="http://www.w3.org/1999/xlink">
<g id="graph0" class="graph" transform="scale(1 1) rotate(0) translate(4 1075)">
<title>t</title>
<polygon fill="white" stroke="none" points="-4,4 -4,-1075 1429.39,-1075 1429.39,4 -4,4"/>
<!-- addresses -->
<g id="node1" class="node">
<title>addresses</title>
<polygon fill="none" stroke="black" points="0,-665 0,-702 138,-702 138,-665 0,-665"/>
<text text-anchor="start" x="41" y="-680.8" font-family="Times,serif" font-weight="bold" font-size="14.00">addresses</text>
<polygon fill="none" stroke="black" points="0,-628 0,-665 138,-665 138,-628 0,-628"/>
<text text-anchor="start" x="31" y="-642.8" font-family="Times,serif" font-size="14.00">address_id:int</text>
<polygon fill="none" stroke="black" points="0,-591 0,-628 138,-628 138,-591 0,-591"/>
<text text-anchor="start" x="26" y="-605.8" font-family="Times,serif" font-size="14.00">customer_id:int</text>
<polygon fill="none" stroke="black" points="0,-554 0,-591 138,-591 138,-554 0,-554"/>
<text text-anchor="start" x="22" y="-568.8" font-family="Times,serif" font-size="14.00">line1:varchar(60)</text>
<polygon fill="none" stroke="black" points="0,-517 0,-554 138,-554 138,-517 0,-517"/>
<text text-anchor="start" x="22" y="-531.8" font-family="Times,serif" font-size="14.00">line2:varchar(60)</text>
<polygon fill="none" stroke="black" points="0,-480 0,-517 138,-517 138,-480 0,-480"/>
<text text-anchor="start" x="25" y="-494.8" font-family="Times,serif" font-size="14.00">city:varchar(40)</text>
<polygon fill="none" stroke="black" points="0,-443 0,-480 138,-480 138,-443 0,-443"/>
<text text-anchor="start" x="26.5" y="-457.8" font-family="Times,serif" font-size="14.00">state:varchar(2)</text>
<polygon fill="none" stroke="black" points="0,-406 0,-443 138,-443 138,-406 0,-406"/>
<text text-anchor="start" x="11" y="-420.8" font-family="Times,serif" font-size="14.00">zip_code:varchar(10)</text>
<polygon fill="none" stroke="black" points="0,-369 0,-406 138,-406 138,-369 0,-369"/>
<text text-anchor="start" x="19" y="-383.8" font-family="Times,serif" font-size="14.00">phone:varchar(12)</text>
<polygon fill="none" stroke="black" points="0,-332 0,-369 138,-369 138,-332 0,-332"/>
<text text-anchor="start" x="19" y="-346.8" font-family="Times,serif" font-size="14.00">disabled:tinyint(1)</text>
</g>
<!-- administrators -->
<g id="node2" class="node">
<title>administrators</title>
<polygon fill="none" stroke="black" points="529,-997 529,-1034 703,-1034 703,-997 529,-997"/>
<text text-anchor="start" x="572.5" y="-1012.8" font-family="Times,serif" font-weight="bold" font-size="14.00">administrators</text>
<polygon fill="none" stroke="black" points="529,-960 529,-997 703,-997 703,-960 529,-960"/>
<text text-anchor="start" x="581" y="-974.8" font-family="Times,serif" font-size="14.00">admin_id:int</text>
<polygon fill="none" stroke="black" points="529,-923 529,-960 703,-960 703,-923 529,-923"/>
<text text-anchor="start" x="540" y="-937.8" font-family="Times,serif" font-size="14.00">email_address:varchar(255)</text>
<polygon fill="none" stroke="black" points="529,-886 529,-923 703,-923 703,-886 529,-886"/>
<text text-anchor="start" x="553.5" y="-900.8" font-family="Times,serif" font-size="14.00">password:varchar(255)</text>
<polygon fill="none" stroke="black" points="529,-849 529,-886 703,-886 703,-849 529,-849"/>
<text text-anchor="start" x="550" y="-863.8" font-family="Times,serif" font-size="14.00">first_name:varchar(255)</text>
<polygon fill="none" stroke="black" points="529,-812 529,-849 703,-849 703,-812 529,-812"/>
<text text-anchor="start" x="551" y="-826.8" font-family="Times,serif" font-size="14.00">last_name:varchar(255)</text>
</g>
<!-- categories -->
<g id="node3" class="node">
<title>categories</title>
<polygon fill="none" stroke="black" points="722,-941 722,-978 901,-978 901,-941 722,-941"/>
<text text-anchor="start" x="782.5" y="-956.8" font-family="Times,serif" font-weight="bold" font-size="14.00">categories</text>
<polygon fill="none" stroke="black" points="722,-904 722,-941 901,-941 901,-904 722,-904"/>
<text text-anchor="start" x="770.5" y="-918.8" font-family="Times,serif" font-size="14.00">category_id:int</text>
<polygon fill="none" stroke="black" points="722,-867 722,-904 901,-904 901,-867 722,-867"/>
<text text-anchor="start" x="733" y="-881.8" font-family="Times,serif" font-size="14.00">category_name:varchar(255)</text>
</g>
<!-- customers -->
<g id="node4" class="node">
<title>customers</title>
<polygon fill="none" stroke="black" points="919,-1034 919,-1071 1093,-1071 1093,-1034 919,-1034"/>
<text text-anchor="start" x="976" y="-1049.8" font-family="Times,serif" font-weight="bold" font-size="14.00">customers</text>
<polygon fill="none" stroke="black" points="919,-997 919,-1034 1093,-1034 1093,-997 919,-997"/>
<text text-anchor="start" x="963" y="-1011.8" font-family="Times,serif" font-size="14.00">customer_id:int</text>
<polygon fill="none" stroke="black" points="919,-960 919,-997 1093,-997 1093,-960 919,-960"/>
<text text-anchor="start" x="930" y="-974.8" font-family="Times,serif" font-size="14.00">email_address:varchar(255)</text>
<polygon fill="none" stroke="black" points="919,-923 919,-960 1093,-960 1093,-923 919,-923"/>
<text text-anchor="start" x="947" y="-937.8" font-family="Times,serif" font-size="14.00">password:varchar(60)</text>
<polygon fill="none" stroke="black" points="919,-886 919,-923 1093,-923 1093,-886 919,-886"/>
<text text-anchor="start" x="943.5" y="-900.8" font-family="Times,serif" font-size="14.00">first_name:varchar(60)</text>
<polygon fill="none" stroke="black" points="919,-849 919,-886 1093,-886 1093,-849 919,-849"/>
<text text-anchor="start" x="944.5" y="-863.8" font-family="Times,serif" font-size="14.00">last_name:varchar(60)</text>
<polygon fill="none" stroke="black" points="919,-812 919,-849 1093,-849 1093,-812 919,-812"/>
<text text-anchor="start" x="941" y="-826.8" font-family="Times,serif" font-size="14.00">shipping_address_id:int</text>
<polygon fill="none" stroke="black" points="919,-775 919,-812 1093,-812 1093,-775 919,-775"/>
<text text-anchor="start" x="947" y="-789.8" font-family="Times,serif" font-size="14.00">billing_address_id:int</text>
</g>
<!-- order_items -->
<g id="node5" class="node">
<title>order_items</title>
<polygon fill="none" stroke="black" points="246,-221.5 246,-258.5 443,-258.5 443,-221.5 246,-221.5"/>
<text text-anchor="start" x="309" y="-237.3" font-family="Times,serif" font-weight="bold" font-size="14.00">order_items</text>
<polygon fill="none" stroke="black" points="246,-184.5 246,-221.5 443,-221.5 443,-184.5 246,-184.5"/>
<text text-anchor="start" x="314" y="-199.3" font-family="Times,serif" font-size="14.00">item_id:int</text>
<polygon fill="none" stroke="black" points="246,-147.5 246,-184.5 443,-184.5 443,-147.5 246,-147.5"/>
<text text-anchor="start" x="312.5" y="-162.3" font-family="Times,serif" font-size="14.00">order_id:int</text>
<polygon fill="none" stroke="black" points="246,-110.5 246,-147.5 443,-147.5 443,-110.5 246,-110.5"/>
<text text-anchor="start" x="306" y="-125.3" font-family="Times,serif" font-size="14.00">product_id:int</text>
<polygon fill="none" stroke="black" points="246,-73.5 246,-110.5 443,-110.5 443,-73.5 246,-73.5"/>
<text text-anchor="start" x="275" y="-88.3" font-family="Times,serif" font-size="14.00">item_price:decimal(10,2)</text>
<polygon fill="none" stroke="black" points="246,-36.5 246,-73.5 443,-73.5 443,-36.5 246,-36.5"/>
<text text-anchor="start" x="257" y="-51.3" font-family="Times,serif" font-size="14.00">discount_amount:decimal(10,2)</text>
<polygon fill="none" stroke="black" points="246,0.5 246,-36.5 443,-36.5 443,0.5 246,0.5"/>
<text text-anchor="start" x="313" y="-14.3" font-family="Times,serif" font-size="14.00">quantity:int</text>
</g>
<!-- orders -->
<g id="node6" class="node">
<title>orders</title>
<polygon fill="none" stroke="black" points="157,-702 157,-739 330,-739 330,-702 157,-702"/>
<text text-anchor="start" x="224.5" y="-717.8" font-family="Times,serif" font-weight="bold" font-size="14.00">orders</text>
<polygon fill="none" stroke="black" points="157,-665 157,-702 330,-702 330,-665 157,-665"/>
<text text-anchor="start" x="211.5" y="-679.8" font-family="Times,serif" font-size="14.00">order_id:int</text>
<polygon fill="none" stroke="black" points="157,-628 157,-665 330,-665 330,-628 157,-628"/>
<text text-anchor="start" x="200.5" y="-642.8" font-family="Times,serif" font-size="14.00">customer_id:int</text>
<polygon fill="none" stroke="black" points="157,-591 157,-628 330,-628 330,-591 157,-591"/>
<text text-anchor="start" x="189" y="-605.8" font-family="Times,serif" font-size="14.00">order_date:datetime</text>
<polygon fill="none" stroke="black" points="157,-554 157,-591 330,-591 330,-554 157,-554"/>
<text text-anchor="start" x="168" y="-568.8" font-family="Times,serif" font-size="14.00">ship_amount:decimal(10,2)</text>
<polygon fill="none" stroke="black" points="157,-517 157,-554 330,-554 330,-517 157,-517"/>
<text text-anchor="start" x="171" y="-531.8" font-family="Times,serif" font-size="14.00">tax_amount:decimal(10,2)</text>
<polygon fill="none" stroke="black" points="157,-480 157,-517 330,-517 330,-480 157,-480"/>
<text text-anchor="start" x="192" y="-494.8" font-family="Times,serif" font-size="14.00">ship_date:datetime</text>
<polygon fill="none" stroke="black" points="157,-443 157,-480 330,-480 330,-443 157,-443"/>
<text text-anchor="start" x="190.5" y="-457.8" font-family="Times,serif" font-size="14.00">ship_address_id:int</text>
<polygon fill="none" stroke="black" points="157,-406 157,-443 330,-443 330,-406 157,-406"/>
<text text-anchor="start" x="183" y="-420.8" font-family="Times,serif" font-size="14.00">card_type:varchar(50)</text>
<polygon fill="none" stroke="black" points="157,-369 157,-406 330,-406 330,-369 157,-369"/>
<text text-anchor="start" x="182.5" y="-383.8" font-family="Times,serif" font-size="14.00">card_number:char(16)</text>
<polygon fill="none" stroke="black" points="157,-332 157,-369 330,-369 330,-332 157,-332"/>
<text text-anchor="start" x="187.5" y="-346.8" font-family="Times,serif" font-size="14.00">card_expires:char(7)</text>
<polygon fill="none" stroke="black" points="157,-295 157,-332 330,-332 330,-295 157,-295"/>
<text text-anchor="start" x="184.5" y="-309.8" font-family="Times,serif" font-size="14.00">billing_address_id:int</text>
</g>
<!-- orders&#45;&#45;order_items -->
<g id="edge4" class="edge">
<title>orders:order_id_PRI&#45;&#45;order_items:order_id_MUL</title>
<path fill="none" stroke="black" d="M331,-684C341.81,-684 335.96,-304.01 330,-295 307.6,-261.12 268.54,-292.79 246,-259 223.18,-224.8 203.89,-166.5 245,-166.5"/>
</g>
<!-- products -->
<g id="node7" class="node">
<title>products</title>
<polygon fill="none" stroke="black" points="348,-646 348,-683 543,-683 543,-646 348,-646"/>
<text text-anchor="start" x="419.5" y="-661.8" font-family="Times,serif" font-weight="bold" font-size="14.00">products</text>
<polygon fill="none" stroke="black" points="348,-609 348,-646 543,-646 543,-609 348,-609"/>
<text text-anchor="start" x="407" y="-623.8" font-family="Times,serif" font-size="14.00">product_id:int</text>
<polygon fill="none" stroke="black" points="348,-572 348,-609 543,-609 543,-572 348,-572"/>
<text text-anchor="start" x="404.5" y="-586.8" font-family="Times,serif" font-size="14.00">category_id:int</text>
<polygon fill="none" stroke="black" points="348,-535 348,-572 543,-572 543,-535 348,-535"/>
<text text-anchor="start" x="375" y="-549.8" font-family="Times,serif" font-size="14.00">product_code:varchar(10)</text>
<polygon fill="none" stroke="black" points="348,-498 348,-535 543,-535 543,-498 348,-498"/>
<text text-anchor="start" x="369.5" y="-512.8" font-family="Times,serif" font-size="14.00">product_name:varchar(255)</text>
<polygon fill="none" stroke="black" points="348,-461 348,-498 543,-498 543,-461 348,-461"/>
<text text-anchor="start" x="403" y="-475.8" font-family="Times,serif" font-size="14.00">description:text</text>
<polygon fill="none" stroke="black" points="348,-424 348,-461 543,-461 543,-424 348,-424"/>
<text text-anchor="start" x="380" y="-438.8" font-family="Times,serif" font-size="14.00">list_price:decimal(10,2)</text>
<polygon fill="none" stroke="black" points="348,-387 348,-424 543,-424 543,-387 348,-387"/>
<text text-anchor="start" x="359" y="-401.8" font-family="Times,serif" font-size="14.00">discount_percent:decimal(10,2)</text>
<polygon fill="none" stroke="black" points="348,-350 348,-387 543,-387 543,-350 348,-350"/>
<text text-anchor="start" x="389" y="-364.8" font-family="Times,serif" font-size="14.00">date_added:datetime</text>
</g>
<!-- products&#45;&#45;order_items -->
<g id="edge5" class="edge">
<title>products:product_id_PRI&#45;&#45;order_items:product_id_MUL</title>
<path fill="none" stroke="black" d="M347,-628C331.58,-628 341.94,-364.68 348,-350.5 371.04,-296.59 419.85,-312.86 443,-259 465.9,-205.71 502,-128.5 444,-128.5"/>
</g>
<!-- ategory_id_PRI -->
<g id="node8" class="node">
<title>ategory_id_PRI</title>
<ellipse fill="none" stroke="black" cx="445" cy="-923" rx="66.09" ry="18"/>
<text text-anchor="middle" x="445" y="-919.3" font-family="Times,serif" font-size="14.00">ategory_id_PRI</text>
</g>
<!-- ategory_id_PRI&#45;&#45;products -->
<g id="edge1" class="edge">
<title>ategory_id_PRI&#45;&#45;products:c</title>
<path fill="none" stroke="black" d="M445,-904.9C445,-866.6 445,-770.48 445,-683.63"/>
</g>
<!-- ategory_id_MUL -->
<g id="node9" class="node">
<title>ategory_id_MUL</title>
<ellipse fill="none" stroke="black" cx="1184" cy="-923" rx="72.59" ry="18"/>
<text text-anchor="middle" x="1184" y="-919.3" font-family="Times,serif" font-size="14.00">ategory_id_MUL</text>
</g>
<!-- ustomer_id_PRI -->
<g id="node10" class="node">
<title>ustomer_id_PRI</title>
<ellipse fill="none" stroke="black" cx="156" cy="-923" rx="68.79" ry="18"/>
<text text-anchor="middle" x="156" y="-919.3" font-family="Times,serif" font-size="14.00">ustomer_id_PRI</text>
</g>
<!-- ustomer_id_PRI&#45;&#45;addresses -->
<g id="edge2" class="edge">
<title>ustomer_id_PRI&#45;&#45;addresses:c</title>
<path fill="none" stroke="black" d="M152.32,-904.9C144.65,-869.3 126.23,-783.76 108.65,-702.14"/>
</g>
<!-- ustomer_id_PRI&#45;&#45;orders -->
<g id="edge3" class="edge">
<title>ustomer_id_PRI&#45;&#45;orders:c</title>
<path fill="none" stroke="black" d="M159.68,-904.9C166.19,-874.67 180.46,-808.43 195.37,-739.16"/>
</g>
<!-- ustomer_id_MUL -->
<g id="node11" class="node">
<title>ustomer_id_MUL</title>
<ellipse fill="none" stroke="black" cx="1350" cy="-923" rx="75.29" ry="18"/>
<text text-anchor="middle" x="1350" y="-919.3" font-family="Times,serif" font-size="14.00">ustomer_id_MUL</text>
</g>
</g>
</svg>
