<?xml version="1.0" encoding="UTF-8" standalone="no"?>
<!DOCTYPE svg PUBLIC "-//W3C//DTD SVG 1.1//EN"
 "http://www.w3.org/Graphics/SVG/1.1/DTD/svg11.dtd">
<!-- Generated by graphviz version 5.0.1 (20220820.1526)
 -->
<!-- Title: t Pages: 1 -->
<svg width="1348pt" height="452pt"
 viewBox="0.00 0.00 1347.50 452.00" xmlns="http://www.w3.org/2000/svg" xmlns:xlink="http://www.w3.org/1999/xlink">
<g id="graph0" class="graph" transform="scale(1 1) rotate(0) translate(4 448)">
<title>t</title>
<polygon fill="white" stroke="none" points="-4,4 -4,-448 1343.5,-448 1343.5,4 -4,4"/>
<!-- addresses -->
<g id="node1" class="node">
<title>addresses</title>
<polygon fill="none" stroke="black" points="0,-370 0,-407 138,-407 138,-370 0,-370"/>
<text text-anchor="start" x="41" y="-385.8" font-family="Times,serif" font-weight="bold" font-size="14.00">addresses</text>
<polygon fill="none" stroke="black" points="0,-333 0,-370 138,-370 138,-333 0,-333"/>
<text text-anchor="start" x="31" y="-347.8" font-family="Times,serif" font-size="14.00">address_id:int</text>
<polygon fill="none" stroke="black" points="0,-296 0,-333 138,-333 138,-296 0,-296"/>
<text text-anchor="start" x="26" y="-310.8" font-family="Times,serif" font-size="14.00">customer_id:int</text>
<polygon fill="none" stroke="black" points="0,-259 0,-296 138,-296 138,-259 0,-259"/>
<text text-anchor="start" x="22" y="-273.8" font-family="Times,serif" font-size="14.00">line1:varchar(60)</text>
<polygon fill="none" stroke="black" points="0,-222 0,-259 138,-259 138,-222 0,-222"/>
<text text-anchor="start" x="22" y="-236.8" font-family="Times,serif" font-size="14.00">line2:varchar(60)</text>
<polygon fill="none" stroke="black" points="0,-185 0,-222 138,-222 138,-185 0,-185"/>
<text text-anchor="start" x="25" y="-199.8" font-family="Times,serif" font-size="14.00">city:varchar(40)</text>
<polygon fill="none" stroke="black" points="0,-148 0,-185 138,-185 138,-148 0,-148"/>
<text text-anchor="start" x="26.5" y="-162.8" font-family="Times,serif" font-size="14.00">state:varchar(2)</text>
<polygon fill="none" stroke="black" points="0,-111 0,-148 138,-148 138,-111 0,-111"/>
<text text-anchor="start" x="11" y="-125.8" font-family="Times,serif" font-size="14.00">zip_code:varchar(10)</text>
<polygon fill="none" stroke="black" points="0,-74 0,-111 138,-111 138,-74 0,-74"/>
<text text-anchor="start" x="19" y="-88.8" font-family="Times,serif" font-size="14.00">phone:varchar(12)</text>
<polygon fill="none" stroke="black" points="0,-37 0,-74 138,-74 138,-37 0,-37"/>
<text text-anchor="start" x="19" y="-51.8" font-family="Times,serif" font-size="14.00">disabled:tinyint(1)</text>
</g>
<!-- administrators -->
<g id="node2" class="node">
<title>administrators</title>
<polygon fill="none" stroke="black" points="156,-296 156,-333 330,-333 330,-296 156,-296"/>
<text text-anchor="start" x="199.5" y="-311.8" font-family="Times,serif" font-weight="bold" font-size="14.00">administrators</text>
<polygon fill="none" stroke="black" points="156,-259 156,-296 330,-296 330,-259 156,-259"/>
<text text-anchor="start" x="208" y="-273.8" font-family="Times,serif" font-size="14.00">admin_id:int</text>
<polygon fill="none" stroke="black" points="156,-222 156,-259 330,-259 330,-222 156,-222"/>
<text text-anchor="start" x="167" y="-236.8" font-family="Times,serif" font-size="14.00">email_address:varchar(255)</text>
<polygon fill="none" stroke="black" points="156,-185 156,-222 330,-222 330,-185 156,-185"/>
<text text-anchor="start" x="180.5" y="-199.8" font-family="Times,serif" font-size="14.00">password:varchar(255)</text>
<polygon fill="none" stroke="black" points="156,-148 156,-185 330,-185 330,-148 156,-148"/>
<text text-anchor="start" x="177" y="-162.8" font-family="Times,serif" font-size="14.00">first_name:varchar(255)</text>
<polygon fill="none" stroke="black" points="156,-111 156,-148 330,-148 330,-111 156,-111"/>
<text text-anchor="start" x="178" y="-125.8" font-family="Times,serif" font-size="14.00">last_name:varchar(255)</text>
</g>
<!-- categories -->
<g id="node3" class="node">
<title>categories</title>
<polygon fill="none" stroke="black" points="349,-240 349,-277 528,-277 528,-240 349,-240"/>
<text text-anchor="start" x="409.5" y="-255.8" font-family="Times,serif" font-weight="bold" font-size="14.00">categories</text>
<polygon fill="none" stroke="black" points="349,-203 349,-240 528,-240 528,-203 349,-203"/>
<text text-anchor="start" x="397.5" y="-217.8" font-family="Times,serif" font-size="14.00">category_id:int</text>
<polygon fill="none" stroke="black" points="349,-166 349,-203 528,-203 528,-166 349,-166"/>
<text text-anchor="start" x="360" y="-180.8" font-family="Times,serif" font-size="14.00">category_name:varchar(255)</text>
</g>
<!-- customers -->
<g id="node4" class="node">
<title>customers</title>
<polygon fill="none" stroke="black" points="546,-333 546,-370 720,-370 720,-333 546,-333"/>
<text text-anchor="start" x="603" y="-348.8" font-family="Times,serif" font-weight="bold" font-size="14.00">customers</text>
<polygon fill="none" stroke="black" points="546,-296 546,-333 720,-333 720,-296 546,-296"/>
<text text-anchor="start" x="590" y="-310.8" font-family="Times,serif" font-size="14.00">customer_id:int</text>
<polygon fill="none" stroke="black" points="546,-259 546,-296 720,-296 720,-259 546,-259"/>
<text text-anchor="start" x="557" y="-273.8" font-family="Times,serif" font-size="14.00">email_address:varchar(255)</text>
<polygon fill="none" stroke="black" points="546,-222 546,-259 720,-259 720,-222 546,-222"/>
<text text-anchor="start" x="574" y="-236.8" font-family="Times,serif" font-size="14.00">password:varchar(60)</text>
<polygon fill="none" stroke="black" points="546,-185 546,-222 720,-222 720,-185 546,-185"/>
<text text-anchor="start" x="570.5" y="-199.8" font-family="Times,serif" font-size="14.00">first_name:varchar(60)</text>
<polygon fill="none" stroke="black" points="546,-148 546,-185 720,-185 720,-148 546,-148"/>
<text text-anchor="start" x="571.5" y="-162.8" font-family="Times,serif" font-size="14.00">last_name:varchar(60)</text>
<polygon fill="none" stroke="black" points="546,-111 546,-148 720,-148 720,-111 546,-111"/>
<text text-anchor="start" x="568" y="-125.8" font-family="Times,serif" font-size="14.00">shipping_address_id:int</text>
<polygon fill="none" stroke="black" points="546,-74 546,-111 720,-111 720,-74 546,-74"/>
<text text-anchor="start" x="574" y="-88.8" font-family="Times,serif" font-size="14.00">billing_address_id:int</text>
</g>
<!-- order_items -->
<g id="node5" class="node">
<title>order_items</title>
<polygon fill="none" stroke="black" points="739,-314 739,-351 936,-351 936,-314 739,-314"/>
<text text-anchor="start" x="802" y="-329.8" font-family="Times,serif" font-weight="bold" font-size="14.00">order_items</text>
<polygon fill="none" stroke="black" points="739,-277 739,-314 936,-314 936,-277 739,-277"/>
<text text-anchor="start" x="807" y="-291.8" font-family="Times,serif" font-size="14.00">item_id:int</text>
<polygon fill="none" stroke="black" points="739,-240 739,-277 936,-277 936,-240 739,-240"/>
<text text-anchor="start" x="805.5" y="-254.8" font-family="Times,serif" font-size="14.00">order_id:int</text>
<polygon fill="none" stroke="black" points="739,-203 739,-240 936,-240 936,-203 739,-203"/>
<text text-anchor="start" x="799" y="-217.8" font-family="Times,serif" font-size="14.00">product_id:int</text>
<polygon fill="none" stroke="black" points="739,-166 739,-203 936,-203 936,-166 739,-166"/>
<text text-anchor="start" x="768" y="-180.8" font-family="Times,serif" font-size="14.00">item_price:decimal(10,2)</text>
<polygon fill="none" stroke="black" points="739,-129 739,-166 936,-166 936,-129 739,-129"/>
<text text-anchor="start" x="750" y="-143.8" font-family="Times,serif" font-size="14.00">discount_amount:decimal(10,2)</text>
<polygon fill="none" stroke="black" points="739,-92 739,-129 936,-129 936,-92 739,-92"/>
<text text-anchor="start" x="806" y="-106.8" font-family="Times,serif" font-size="14.00">quantity:int</text>
</g>
<!-- orders -->
<g id="node6" class="node">
<title>orders</title>
<polygon fill="none" stroke="black" points="954,-407 954,-444 1127,-444 1127,-407 954,-407"/>
<text text-anchor="start" x="1021.5" y="-422.8" font-family="Times,serif" font-weight="bold" font-size="14.00">orders</text>
<polygon fill="none" stroke="black" points="954,-370 954,-407 1127,-407 1127,-370 954,-370"/>
<text text-anchor="start" x="1008.5" y="-384.8" font-family="Times,serif" font-size="14.00">order_id:int</text>
<polygon fill="none" stroke="black" points="954,-333 954,-370 1127,-370 1127,-333 954,-333"/>
<text text-anchor="start" x="997.5" y="-347.8" font-family="Times,serif" font-size="14.00">customer_id:int</text>
<polygon fill="none" stroke="black" points="954,-296 954,-333 1127,-333 1127,-296 954,-296"/>
<text text-anchor="start" x="986" y="-310.8" font-family="Times,serif" font-size="14.00">order_date:datetime</text>
<polygon fill="none" stroke="black" points="954,-259 954,-296 1127,-296 1127,-259 954,-259"/>
<text text-anchor="start" x="965" y="-273.8" font-family="Times,serif" font-size="14.00">ship_amount:decimal(10,2)</text>
<polygon fill="none" stroke="black" points="954,-222 954,-259 1127,-259 1127,-222 954,-222"/>
<text text-anchor="start" x="968" y="-236.8" font-family="Times,serif" font-size="14.00">tax_amount:decimal(10,2)</text>
<polygon fill="none" stroke="black" points="954,-185 954,-222 1127,-222 1127,-185 954,-185"/>
<text text-anchor="start" x="989" y="-199.8" font-family="Times,serif" font-size="14.00">ship_date:datetime</text>
<polygon fill="none" stroke="black" points="954,-148 954,-185 1127,-185 1127,-148 954,-148"/>
<text text-anchor="start" x="987.5" y="-162.8" font-family="Times,serif" font-size="14.00">ship_address_id:int</text>
<polygon fill="none" stroke="black" points="954,-111 954,-148 1127,-148 1127,-111 954,-111"/>
<text text-anchor="start" x="980" y="-125.8" font-family="Times,serif" font-size="14.00">card_type:varchar(50)</text>
<polygon fill="none" stroke="black" points="954,-74 954,-111 1127,-111 1127,-74 954,-74"/>
<text text-anchor="start" x="979.5" y="-88.8" font-family="Times,serif" font-size="14.00">card_number:char(16)</text>
<polygon fill="none" stroke="black" points="954,-37 954,-74 1127,-74 1127,-37 954,-37"/>
<text text-anchor="start" x="984.5" y="-51.8" font-family="Times,serif" font-size="14.00">card_expires:char(7)</text>
<polygon fill="none" stroke="black" points="954,0 954,-37 1127,-37 1127,0 954,0"/>
<text text-anchor="start" x="981.5" y="-14.8" font-family="Times,serif" font-size="14.00">billing_address_id:int</text>
</g>
<!-- products -->
<g id="node7" class="node">
<title>products</title>
<polygon fill="none" stroke="black" points="1145,-351 1145,-388 1340,-388 1340,-351 1145,-351"/>
<text text-anchor="start" x="1216.5" y="-366.8" font-family="Times,serif" font-weight="bold" font-size="14.00">products</text>
<polygon fill="none" stroke="black" points="1145,-314 1145,-351 1340,-351 1340,-314 1145,-314"/>
<text text-anchor="start" x="1204" y="-328.8" font-family="Times,serif" font-size="14.00">product_id:int</text>
<polygon fill="none" stroke="black" points="1145,-277 1145,-314 1340,-314 1340,-277 1145,-277"/>
<text text-anchor="start" x="1201.5" y="-291.8" font-family="Times,serif" font-size="14.00">category_id:int</text>
<polygon fill="none" stroke="black" points="1145,-240 1145,-277 1340,-277 1340,-240 1145,-240"/>
<text text-anchor="start" x="1172" y="-254.8" font-family="Times,serif" font-size="14.00">product_code:varchar(10)</text>
<polygon fill="none" stroke="black" points="1145,-203 1145,-240 1340,-240 1340,-203 1145,-203"/>
<text text-anchor="start" x="1166.5" y="-217.8" font-family="Times,serif" font-size="14.00">product_name:varchar(255)</text>
<polygon fill="none" stroke="black" points="1145,-166 1145,-203 1340,-203 1340,-166 1145,-166"/>
<text text-anchor="start" x="1200" y="-180.8" font-family="Times,serif" font-size="14.00">description:text</text>
<polygon fill="none" stroke="black" points="1145,-129 1145,-166 1340,-166 1340,-129 1145,-129"/>
<text text-anchor="start" x="1177" y="-143.8" font-family="Times,serif" font-size="14.00">list_price:decimal(10,2)</text>
<polygon fill="none" stroke="black" points="1145,-92 1145,-129 1340,-129 1340,-92 1145,-92"/>
<text text-anchor="start" x="1156" y="-106.8" font-family="Times,serif" font-size="14.00">discount_percent:decimal(10,2)</text>
<polygon fill="none" stroke="black" points="1145,-55 1145,-92 1340,-92 1340,-55 1145,-55"/>
<text text-anchor="start" x="1186" y="-69.8" font-family="Times,serif" font-size="14.00">date_added:datetime</text>
</g>
</g>
</svg>
