<?xml version="1.0" encoding="UTF-8" standalone="no"?>
<!DOCTYPE svg PUBLIC "-//W3C//DTD SVG 1.1//EN"
 "http://www.w3.org/Graphics/SVG/1.1/DTD/svg11.dtd">
<!-- Generated by graphviz version 5.0.1 (20220820.1526)
 -->
<!-- Title: t Pages: 1 -->
<svg width="735pt" height="1079pt"
 viewBox="0.00 0.00 735.00 1079.00" xmlns="http://www.w3.org/2000/svg" xmlns:xlink="http://www.w3.org/1999/xlink">
<g id="graph0" class="graph" transform="scale(1 1) rotate(0) translate(4 1075)">
<title>t</title>
<polygon fill="white" stroke="none" points="-4,4 -4,-1075 731,-1075 731,4 -4,4"/>
<!-- addresses -->
<g id="node1" class="node">
<title>addresses</title>
<polygon fill="none" stroke="black" points="0,-665 0,-702 138,-702 138,-665 0,-665"/>
<text text-anchor="start" x="41" y="-680.8" font-family="Times,serif" font-weight="bold" font-size="14.00">addresses</text>
<polygon fill="none" stroke="black" points="0,-628 0,-665 138,-665 138,-628 0,-628"/>
<text text-anchor="start" x="31" y="-642.8" font-family="Times,serif" font-size="14.00">address_id:int</text>
<polygon fill="none" stroke="black" points="0,-591 0,-628 138,-628 138,-591 0,-591"/>
<text text-anchor="start" x="26" y="-605.8" font-family="Times,serif" font-size="14.00">customer_id:int</text>
<polygon fill="none" stroke="black" points="0,-554 0,-591 138,-591 138,-554 0,-554"/>
<text text-anchor="start" x="22" y="-568.8" font-family="Times,serif" font-size="14.00">line1:varchar(60)</text>
<polygon fill="none" stroke="black" points="0,-517 0,-554 138,-554 138,-517 0,-517"/>
<text text-anchor="start" x="22" y="-531.8" font-family="Times,serif" font-size="14.00">line2:varchar(60)</text>
<polygon fill="none" stroke="black" points="0,-480 0,-517 138,-517 138,-480 0,-480"/>
<text text-anchor="start" x="25" y="-494.8" font-family="Times,serif" font-size="14.00">city:varchar(40)</text>
<polygon fill="none" stroke="black" points="0,-443 0,-480 138,-480 138,-443 0,-443"/>
<text text-anchor="start" x="26.5" y="-457.8" font-family="Times,serif" font-size="14.00">state:varchar(2)</text>
<polygon fill="none" stroke="black" points="0,-406 0,-443 138,-443 138,-406 0,-406"/>
<text text-anchor="start" x="11" y="-420.8" font-family="Times,serif" font-size="14.00">zip_code:varchar(10)</text>
<polygon fill="none" stroke="black" points="0,-369 0,-406 138,-406 138,-369 0,-369"/>
<text text-anchor="start" x="19" y="-383.8" font-family="Times,serif" font-size="14.00">phone:varchar(12)</text>
<polygon fill="none" stroke="black" points="0,-332 0,-369 138,-369 138,-332 0,-332"/>
<text text-anchor="start" x="19" y="-346.8" font-family="Times,serif" font-size="14.00">disabled:tinyint(1)</text>
</g>
<!-- administrators -->
<g id="node2" class="node">
<title>administrators</title>
<polygon fill="none" stroke="black" points="553,-997 553,-1034 727,-1034 727,-997 553,-997"/>
<text text-anchor="start" x="596.5" y="-1012.8" font-family="Times,serif" font-weight="bold" font-size="14.00">administrators</text>
<polygon fill="none" stroke="black" points="553,-960 553,-997 727,-997 727,-960 553,-960"/>
<text text-anchor="start" x="605" y="-974.8" font-family="Times,serif" font-size="14.00">admin_id:int</text>
<polygon fill="none" stroke="black" points="553,-923 553,-960 727,-960 727,-923 553,-923"/>
<text text-anchor="start" x="564" y="-937.8" font-family="Times,serif" font-size="14.00">email_address:varchar(255)</text>
<polygon fill="none" stroke="black" points="553,-886 553,-923 727,-923 727,-886 553,-886"/>
<text text-anchor="start" x="577.5" y="-900.8" font-family="Times,serif" font-size="14.00">password:varchar(255)</text>
<polygon fill="none" stroke="black" points="553,-849 553,-886 727,-886 727,-849 553,-849"/>
<text text-anchor="start" x="574" y="-863.8" font-family="Times,serif" font-size="14.00">first_name:varchar(255)</text>
<polygon fill="none" stroke="black" points="553,-812 553,-849 727,-849 727,-812 553,-812"/>
<text text-anchor="start" x="575" y="-826.8" font-family="Times,serif" font-size="14.00">last_name:varchar(255)</text>
</g>
<!-- categories -->
<g id="node3" class="node">
<title>categories</title>
<polygon fill="none" stroke="black" points="356,-941 356,-978 535,-978 535,-941 356,-941"/>
<text text-anchor="start" x="416.5" y="-956.8" font-family="Times,serif" font-weight="bold" font-size="14.00">categories</text>
<polygon fill="none" stroke="black" points="356,-904 356,-941 535,-941 535,-904 356,-904"/>
<text text-anchor="start" x="404.5" y="-918.8" font-family="Times,serif" font-size="14.00">category_id:int</text>
<polygon fill="none" stroke="black" points="356,-867 356,-904 535,-904 535,-867 356,-867"/>
<text text-anchor="start" x="367" y="-881.8" font-family="Times,serif" font-size="14.00">category_name:varchar(255)</text>
</g>
<!-- products -->
<g id="node7" class="node">
<title>products</title>
<polygon fill="none" stroke="black" points="348,-646 348,-683 543,-683 543,-646 348,-646"/>
<text text-anchor="start" x="419.5" y="-661.8" font-family="Times,serif" font-weight="bold" font-size="14.00">products</text>
<polygon fill="none" stroke="black" points="348,-609 348,-646 543,-646 543,-609 348,-609"/>
<text text-anchor="start" x="407" y="-623.8" font-family="Times,serif" font-size="14.00">product_id:int</text>
<polygon fill="none" stroke="black" points="348,-572 348,-609 543,-609 543,-572 348,-572"/>
<text text-anchor="start" x="404.5" y="-586.8" font-family="Times,serif" font-size="14.00">category_id:int</text>
<polygon fill="none" stroke="black" points="348,-535 348,-572 543,-572 543,-535 348,-535"/>
<text text-anchor="start" x="375" y="-549.8" font-family="Times,serif" font-size="14.00">product_code:varchar(10)</text>
<polygon fill="none" stroke="black" points="348,-498 348,-535 543,-535 543,-498 348,-498"/>
<text text-anchor="start" x="369.5" y="-512.8" font-family="Times,serif" font-size="14.00">product_name:varchar(255)</text>
<polygon fill="none" stroke="black" points="348,-461 348,-498 543,-498 543,-461 348,-461"/>
<text text-anchor="start" x="403" y="-475.8" font-family="Times,serif" font-size="14.00">description:text</text>
<polygon fill="none" stroke="black" points="348,-424 348,-461 543,-461 543,-424 348,-424"/>
<text text-anchor="start" x="380" y="-438.8" font-family="Times,serif" font-size="14.00">list_price:decimal(10,2)</text>
<polygon fill="none" stroke="black" points="348,-387 348,-424 543,-424 543,-387 348,-387"/>
<text text-anchor="start" x="359" y="-401.8" font-family="Times,serif" font-size="14.00">discount_percent:decimal(10,2)</text>
<polygon fill="none" stroke="black" points="348,-350 348,-387 543,-387 543,-350 348,-350"/>
<text text-anchor="start" x="389" y="-364.8" font-family="Times,serif" font-size="14.00">date_added:datetime</text>
</g>
<!-- categories&#45;&#45;products -->
<g id="edge1" class="edge">
<title>categories:p15_PRI&#45;&#45;products:p42_MUL</title>
<path fill="none" stroke="black" d="M355,-922C345.8,-922 337.8,-591 347,-591"/>
</g>
<!-- customers -->
<g id="node4" class="node">
<title>customers</title>
<polygon fill="none" stroke="black" points="69,-1034 69,-1071 243,-1071 243,-1034 69,-1034"/>
<text text-anchor="start" x="126" y="-1049.8" font-family="Times,serif" font-weight="bold" font-size="14.00">customers</text>
<polygon fill="none" stroke="black" points="69,-997 69,-1034 243,-1034 243,-997 69,-997"/>
<text text-anchor="start" x="113" y="-1011.8" font-family="Times,serif" font-size="14.00">customer_id:int</text>
<polygon fill="none" stroke="black" points="69,-960 69,-997 243,-997 243,-960 69,-960"/>
<text text-anchor="start" x="80" y="-974.8" font-family="Times,serif" font-size="14.00">email_address:varchar(255)</text>
<polygon fill="none" stroke="black" points="69,-923 69,-960 243,-960 243,-923 69,-923"/>
<text text-anchor="start" x="97" y="-937.8" font-family="Times,serif" font-size="14.00">password:varchar(60)</text>
<polygon fill="none" stroke="black" points="69,-886 69,-923 243,-923 243,-886 69,-886"/>
<text text-anchor="start" x="93.5" y="-900.8" font-family="Times,serif" font-size="14.00">first_name:varchar(60)</text>
<polygon fill="none" stroke="black" points="69,-849 69,-886 243,-886 243,-849 69,-849"/>
<text text-anchor="start" x="94.5" y="-863.8" font-family="Times,serif" font-size="14.00">last_name:varchar(60)</text>
<polygon fill="none" stroke="black" points="69,-812 69,-849 243,-849 243,-812 69,-812"/>
<text text-anchor="start" x="91" y="-826.8" font-family="Times,serif" font-size="14.00">shipping_address_id:int</text>
<polygon fill="none" stroke="black" points="69,-775 69,-812 243,-812 243,-775 69,-775"/>
<text text-anchor="start" x="97" y="-789.8" font-family="Times,serif" font-size="14.00">billing_address_id:int</text>
</g>
<!-- customers&#45;&#45;addresses -->
<g id="edge2" class="edge">
<title>customers:p17_PRI&#45;&#45;addresses:p2_MUL</title>
<path fill="none" stroke="black" d="M68,-1016C-39.11,-1016 29.2,-874.44 69,-775 85.59,-733.55 121.27,-743.39 138,-702 141.83,-692.52 149.22,-610 139,-610"/>
</g>
<!-- orders -->
<g id="node6" class="node">
<title>orders</title>
<polygon fill="none" stroke="black" points="157,-702 157,-739 330,-739 330,-702 157,-702"/>
<text text-anchor="start" x="224.5" y="-717.8" font-family="Times,serif" font-weight="bold" font-size="14.00">orders</text>
<polygon fill="none" stroke="black" points="157,-665 157,-702 330,-702 330,-665 157,-665"/>
<text text-anchor="start" x="211.5" y="-679.8" font-family="Times,serif" font-size="14.00">order_id:int</text>
<polygon fill="none" stroke="black" points="157,-628 157,-665 330,-665 330,-628 157,-628"/>
<text text-anchor="start" x="200.5" y="-642.8" font-family="Times,serif" font-size="14.00">customer_id:int</text>
<polygon fill="none" stroke="black" points="157,-591 157,-628 330,-628 330,-591 157,-591"/>
<text text-anchor="start" x="189" y="-605.8" font-family="Times,serif" font-size="14.00">order_date:datetime</text>
<polygon fill="none" stroke="black" points="157,-554 157,-591 330,-591 330,-554 157,-554"/>
<text text-anchor="start" x="168" y="-568.8" font-family="Times,serif" font-size="14.00">ship_amount:decimal(10,2)</text>
<polygon fill="none" stroke="black" points="157,-517 157,-554 330,-554 330,-517 157,-517"/>
<text text-anchor="start" x="171" y="-531.8" font-family="Times,serif" font-size="14.00">tax_amount:decimal(10,2)</text>
<polygon fill="none" stroke="black" points="157,-480 157,-517 330,-517 330,-480 157,-480"/>
<text text-anchor="start" x="192" y="-494.8" font-family="Times,serif" font-size="14.00">ship_date:datetime</text>
<polygon fill="none" stroke="black" points="157,-443 157,-480 330,-480 330,-443 157,-443"/>
<text text-anchor="start" x="190.5" y="-457.8" font-family="Times,serif" font-size="14.00">ship_address_id:int</text>
<polygon fill="none" stroke="black" points="157,-406 157,-443 330,-443 330,-406 157,-406"/>
<text text-anchor="start" x="183" y="-420.8" font-family="Times,serif" font-size="14.00">card_type:varchar(50)</text>
<polygon fill="none" stroke="black" points="157,-369 157,-406 330,-406 330,-369 157,-369"/>
<text text-anchor="start" x="182.5" y="-383.8" font-family="Times,serif" font-size="14.00">card_number:char(16)</text>
<polygon fill="none" stroke="black" points="157,-332 157,-369 330,-369 330,-332 157,-332"/>
<text text-anchor="start" x="187.5" y="-346.8" font-family="Times,serif" font-size="14.00">card_expires:char(7)</text>
<polygon fill="none" stroke="black" points="157,-295 157,-332 330,-332 330,-295 157,-295"/>
<text text-anchor="start" x="184.5" y="-309.8" font-family="Times,serif" font-size="14.00">billing_address_id:int</text>
</g>
<!-- customers&#45;&#45;orders -->
<g id="edge3" class="edge">
<title>customers:p17_PRI&#45;&#45;orders:p31_MUL</title>
<path fill="none" stroke="black" d="M244,-1016C362.88,-1016 353.77,-872.33 319.86,-739.33"/>
</g>
<!-- order_items -->
<g id="node5" class="node">
<title>order_items</title>
<polygon fill="none" stroke="black" points="246,-221.5 246,-258.5 443,-258.5 443,-221.5 246,-221.5"/>
<text text-anchor="start" x="309" y="-237.3" font-family="Times,serif" font-weight="bold" font-size="14.00">order_items</text>
<polygon fill="none" stroke="black" points="246,-184.5 246,-221.5 443,-221.5 443,-184.5 246,-184.5"/>
<text text-anchor="start" x="314" y="-199.3" font-family="Times,serif" font-size="14.00">item_id:int</text>
<polygon fill="none" stroke="black" points="246,-147.5 246,-184.5 443,-184.5 443,-147.5 246,-147.5"/>
<text text-anchor="start" x="312.5" y="-162.3" font-family="Times,serif" font-size="14.00">order_id:int</text>
<polygon fill="none" stroke="black" points="246,-110.5 246,-147.5 443,-147.5 443,-110.5 246,-110.5"/>
<text text-anchor="start" x="306" y="-125.3" font-family="Times,serif" font-size="14.00">product_id:int</text>
<polygon fill="none" stroke="black" points="246,-73.5 246,-110.5 443,-110.5 443,-73.5 246,-73.5"/>
<text text-anchor="start" x="275" y="-88.3" font-family="Times,serif" font-size="14.00">item_price:decimal(10,2)</text>
<polygon fill="none" stroke="black" points="246,-36.5 246,-73.5 443,-73.5 443,-36.5 246,-36.5"/>
<text text-anchor="start" x="257" y="-51.3" font-family="Times,serif" font-size="14.00">discount_amount:decimal(10,2)</text>
<polygon fill="none" stroke="black" points="246,0.5 246,-36.5 443,-36.5 443,0.5 246,0.5"/>
<text text-anchor="start" x="313" y="-14.3" font-family="Times,serif" font-size="14.00">quantity:int</text>
</g>
<!-- orders&#45;&#45;order_items -->
<g id="edge4" class="edge">
<title>orders:p30_PRI&#45;&#45;order_items:p25_MUL</title>
<path fill="none" stroke="black" d="M331,-684C341.81,-684 335.96,-304.01 330,-295 307.6,-261.12 268.54,-292.79 246,-259 223.18,-224.8 203.89,-166.5 245,-166.5"/>
</g>
<!-- products&#45;&#45;order_items -->
<g id="edge5" class="edge">
<title>products:p41_PRI&#45;&#45;order_items:p26_MUL</title>
<path fill="none" stroke="black" d="M347,-628C331.58,-628 341.94,-364.68 348,-350.5 371.04,-296.59 419.85,-312.86 443,-259 465.9,-205.71 502,-128.5 444,-128.5"/>
</g>
</g>
</svg>
